<svg xmlns="http://www.w3.org/2000/svg" xmlns:xlink="http://www.w3.org/1999/xlink" style="margin:auto;background:rgba(NaN, NaN, NaN, 0);display:block;z-index:1;position:relative" width="1233" height="1206" preserveAspectRatio="xMidYMid" viewBox="0 0 1233 1206">
  <g transform="translate(616.5,603) scale(1,1) translate(-616.5,-603)">
    <g transform="translate(957.4913955907291,338.49996099605806) scale(100)" opacity="0.4">
      <path d="M4.1860349999999995 0 C4.1860349999999995 0.9925649999999997 4.345735108932696 1.362895995092698 3.8494526089326966 2.222482499999999 S2.9526040049073012 3.128930151130792 2.0930175 3.625212651130792 S0.9925649999999999 4.444964999999999 2.721756079786007e-16 4.444964999999999 S-1.2334309950926978 4.121495151130792 -2.093017499999999 3.6252126511307923 S-3.3531701089326953 3.082069004907302 -3.8494526089326957 2.222482500000001 S-4.1860349999999995 0.9925650000000003 -4.1860349999999995 5.12641436386879e-16 S-4.345735108932697 -1.3628959950926969 -3.849452608932697 -2.222482499999998 S-2.9526040049073026 -3.128930151130791 -2.0930175000000015 -3.6252126511307914 S-0.9925650000000005 -4.444964999999999 -8.165268239358019e-16 -4.444964999999999 S1.2334309950926956 -4.121495151130794 2.093017499999997 -3.625212651130794 S3.353170108932695 -3.082069004907302 3.8494526089326953 -2.2224825000000012 S4.1860349999999995 -0.9925650000000007 4.1860349999999995 -1.025282872773758e-15" fill="#1ea3ff" stroke-width="0">
        <animateTransform attributeName="transform" type="rotate" dur="10s" repeatCount="indefinite" values="0;60"></animateTransform>
      </path>
    </g>
    <g transform="translate(1025.689674708875,285.59995319526973) scale(100)" opacity="0.4">
      <path d="M5.023241999999999 0 C5.023241999999999 1.1910779999999999 5.214882130719237 1.635475194111238 4.619343130719237 2.6669789999999995 S3.543124805888761 3.7547161813569496 2.511621 4.35025518135695 S1.191078 5.333958 3.266107295743209e-16 5.333958 S-1.4801171941112365 4.94579418135695 -2.511620999999998 4.3502551813569506 S-4.023804130719236 3.698482805888763 -4.619343130719236 2.6669790000000018 S-5.023241999999999 1.1910780000000005 -5.023241999999999 6.151697236642547e-16 S-5.2148821307192375 -1.6354751941112369 -4.619343130719238 -2.6669789999999987 S-3.543124805888763 -3.754716181356949 -2.5116210000000017 -4.35025518135695 S-1.1910780000000007 -5.333958 -9.798321887229626e-16 -5.333958 S1.4801171941112339 -4.945794181356952 2.511620999999996 -4.350255181356952 S4.023804130719235 -3.698482805888763 4.619343130719235 -2.666979000000002 S5.023241999999999 -1.1910780000000012 5.023241999999999 -1.2303394473285094e-15" fill="#1b91ff" stroke-width="0">
        <animateTransform attributeName="transform" type="rotate" dur="5s" repeatCount="indefinite" values="0;60"></animateTransform>
      </path>
    </g>
    <g transform="translate(1189.3655445924248,158.63993447337765) scale(100)" opacity="0.4">
      <path d="M7.0325387999999975 0 C7.0325387999999975 1.6675091999999994 7.30083498300693 2.289665271755733 6.46708038300693 3.7337705999999984 S4.960374728244265 5.256602653899729 3.5162693999999997 6.090357253899729 S1.6675091999999998 7.467541199999998 4.572550214040491e-16 7.467541199999998 S-2.072164071755731 6.9241118538997295 -3.516269399999997 6.09035725389973 S-5.633325783006928 5.1778759282442675 -6.467080383006929 3.7337706000000015 S-7.0325387999999975 1.6675092000000002 -7.0325387999999975 8.612376131299565e-16 S-7.300834983006929 -2.2896652717557306 -6.46708038300693 -3.7337705999999966 S-4.960374728244267 -5.256602653899727 -3.516269400000002 -6.090357253899728 S-1.6675092000000007 -7.467541199999998 -1.3717650642121472e-15 -7.467541199999998 S2.0721640717557275 -6.924111853899731 3.516269399999994 -6.090357253899732 S5.633325783006927 -5.1778759282442675 6.467080383006928 -3.733770600000002 S7.0325387999999975 -1.6675092000000011 7.0325387999999975 -1.722475226259913e-15" fill="#347eff" stroke-width="0">
        <animateTransform attributeName="transform" type="rotate" dur="3.3333333333333335s" repeatCount="indefinite" values="0;60"></animateTransform>
      </path>
    </g>
  </g>
</svg>