<?xml version="1.0" encoding="utf-8"?>
<svg version="1.1" xmlns="http://www.w3.org/2000/svg" xmlns:xlink="http://www.w3.org/1999/xlink"
	x="0px" y="0px"
	viewBox="0 0 994 1109" style="enable-background:new 0 0 994 1109;" xml:space="preserve">
<style type="text/css">
	.st0{fill:#FFDB4B;}
	.st1{fill:#8C4200;}
	.st2{fill:#3C3228;}
	.st3{fill:#46200B;}
	.st4{fill:#2B1B13;}
	.st5{fill:#FFFFFF;}
	.st6{fill:#6D5237;}
	.st7{fill:#FF7751;}
	.st8{fill:#946617;}
</style>
<g id="_x23_ffdb4bff">
	<path class="st0" d="M638.3,0H857c0.9,12.5,0.4,25.1-1.7,37.4c-1.1,4.6-4.2,8.4-6.6,12.4c-3.9,6.2-8,12.3-11.8,18.5
		c46.2-23.6,92.7-46.9,140-68.3H994v239.2c-26.5,16.9-55.1,29.8-83.4,43.4c-14,6.6-27.9,13.3-42,19.7c10.2,10.1,20.1,20.7,28.6,32.4
		c9.5,12.7,17.5,26.4,26.4,39.5c22.3,33.6,45.6,66.6,70.3,98.4V1109H816c22-31.4,42.5-64.1,68.9-92.1c8.6-9.1,13.7-21.2,14.6-33.7
		c-15.4,11.3-32.8,19.6-48,31.2c-15.2,11.3-28,25.7-38.6,41.4c-12.2,18.7-26.7,35.8-40.6,53.2H519.6c7.6-45.8,23.1-89.8,38.7-133.4
		c10.1-26.9,22-53.1,36.1-78.1c11.2-19.2,22.8-38.5,38.6-54.4c16.6-17.2,36.4-30.9,56-44.3c-12.1-0.7-23.5,4.3-34.4,8.8
		c-29.1,12.5-55.4,32-75,57c-29.3,39.2-50.4,83.9-67.8,129.5c-8.3,21.8-15.2,44.1-21.1,66.7c-4.1,15.9-7.6,32-9.9,48.3h-58.6
		c-4.4-24.4-8.2-49.1-8.6-74c-0.1-15.4,2.7-30.7,4.8-45.9c5.1-32.1,12-64,21.4-95.2c-32.3-11.7-63.5-26-94-41.8
		c-31.9-16.9-62.6-36.4-89.2-60.9c-25.5-23.3-46.6-51.5-60.9-82.9c2.8,1.5,6,2.8,9.2,1.8c5.1-1.1,8.5-5.5,11.1-9.7
		c11.3,7.6,23.2,15.3,36.9,17.5c15.6,2.7,33.3-0.6,44.4-12.5c4-4.6,8-10,8.2-16.2c-0.1-6.5-7.8-11-13.5-8.1c-4.8,2-5.3,8-8.8,11.3
		c-6.8,6.8-17.2,8.1-26.3,6.7c-11.9-1.8-21.7-9.2-31.5-15.5c-5.6-3.6-13.4-5.3-19.2-1.3c-4.6,2.5-5.7,8.2-9.8,11.2
		c-2.4,1.6-3.2,4.3-4,6.9c-6.4-15.6-11.4-31.8-14.6-48.3c-3.1-15.5-4-31.4-4.4-47.2c1.4,3.5,3.2,7.4,7.1,8.6
		c5.2,1.7,11.2,1.8,16.2-0.7c6.9-3.3,7.6-15.6,0.1-18.5c-5-1.8-10.6-1.6-15.8-1.1c-2.9,0.1-5.2,2.1-7.4,3.6l0.3-1.8
		c0.9-6.6,5.7-11.5,10.7-15.5c8.2-6.7,14.1-15.9,16.8-26.1c5.4-19.8,8.5-40.2,12-60.4c3.8-24.2,8.5-48.2,14.8-71.8
		c8.4-31.7,19.9-62.9,36.9-91.1c13.9-23.6,31.9-44.6,50.7-64.4c23-24.2,49.2-45.8,79.1-61c26-13.5,54.5-21.9,83.4-26.6
		c3.6-0.4,5.2-4.1,7.5-6.4C536.2,114.1,586.7,56.6,638.3,0 M386.4,451.5l0.7,0c-4.1,0.7-7.6,3.3-11,5.7
		c-12.2,9.8-18.4,25.2-20.7,40.3c-3.6,16.5-3.5,34,0.6,50.5c2.7,10.9,9.1,21.3,19,27.1c10.7,6.5,24,7,36,4.4
		c11.2-2.9,19-13.3,22.8-23.7c5.7-13.4,8.1-28.1,8.9-42.6c0.6-11.4-0.7-23.1-4.9-33.8c-3.6-9.1-9.4-17.7-17.5-23.4
		C410.5,449,397.4,447.2,386.4,451.5 M529.4,577.7c-15.7,1.2-31.3,5.1-45.3,12.5c-32.4,16.8-53.5,52.5-54.3,88.9
		c-0.5,21.7,6.1,43.7,19.3,61c9.6,12.8,23.4,22.8,39.1,26.7c19.3,4.6,39.5,3.9,58.9,0.1c19.2-4,38-11,53.9-22.6
		c10.5-7.6,19.4-17.7,24.3-29.9c12.2-28.1,15.1-61.6,2.7-90.2c-7.2-17.2-21-31.9-38.6-38.5C570.2,578.9,549.6,576.2,529.4,577.7z"/>
</g>
<g id="_x23_8c4200ff">
	<path class="st1" d="M534.8,0h103.5c-51.6,56.6-102.1,114.1-152.7,171.6c-2.3,2.3-3.9,6-7.5,6.4c-28.9,4.8-57.3,13.1-83.4,26.6
		c-29.9,15.2-56.1,36.8-79.1,61c-18.8,19.8-36.8,40.8-50.7,64.4c-16.9,28.2-28.4,59.4-36.9,91.1c-6.3,23.6-11,47.7-14.8,71.8
		c-3.5,20.2-6.6,40.6-12,60.4c-2.7,10.2-8.7,19.4-16.8,26.1c-5,4-9.8,8.9-10.7,15.5c-0.9,3.2-0.8,6.6-0.4,9.8
		c0.4,15.8,1.3,31.7,4.4,47.2c3.1,16.6,8.1,32.8,14.6,48.3c1.2,2.7,2.3,5.3,3.5,8c14.3,31.5,35.4,59.7,60.9,82.9
		c26.6,24.5,57.3,44.1,89.2,60.9c30.4,15.8,61.7,30.1,94,41.8c-9.4,31.2-16.3,63-21.4,95.2c-2.2,15.2-5,30.5-4.8,45.9
		c0.4,24.9,4.2,49.5,8.6,74h-78c-6.3-37.2-10.4-75.5-4.4-113c2.5-18.9,5.8-37.6,9.5-56.3c-28.3-13.2-56.2-27.6-82.6-44.5
		c-31.4-20-60.9-43.5-85.8-71.2c-53-58.5-84.2-136.8-84.1-216c0.2-7.7-0.1-15.3,0.9-23c2.6-21.5,13.1-41.8,28.7-56.7
		c1.6-1.5,3.1-3.1,3.3-5.3c2.9-13.9,5.2-27.8,7.6-41.8c4-25.4,8.9-50.6,15.4-75.5c10.3-40,24.9-79.3,46.1-114.9
		c16.9-28.8,38.5-54.4,61.3-78.6c21.7-22.9,45.7-43.7,72.3-60.7c31.9-20.4,67.5-35,104.3-43.7c2-0.4,3.8-1.3,5.1-2.9
		C472.7,69.8,503.6,34.8,534.8,0z"/>
	<path class="st1" d="M877.8,0h99.1c-47.3,21.4-93.7,44.6-140,68.3c3.9-6.2,8-12.3,11.8-18.5c2.4-4,5.5-7.7,6.6-12.4
		c3.5-3.4,5.5-7.9,8.1-12C868.2,17,873.3,8.6,877.8,0z"/>
	<path class="st1" d="M910.6,282.6c28.2-13.6,56.9-26.5,83.4-43.4v88.7c-2.2,1.1-4.4,2.2-6.7,3.2c2.1,3.3,4.3,6.5,6.7,9.7v131.9
		c-24.7-31.8-48-64.8-70.3-98.4c-8.9-13.1-16.9-26.8-26.4-39.5c-8.5-11.7-18.4-22.3-28.6-32.4C882.7,295.9,896.6,289.2,910.6,282.6z
		"/>
	<path class="st1" d="M654.7,807.6c11-4.5,22.3-9.5,34.4-8.8c-19.7,13.4-39.4,27.1-56,44.3c-15.8,15.9-27.4,35.2-38.6,54.4
		c-14.1,25-26,51.2-36.1,78.1c-15.6,43.6-31.1,87.6-38.7,133.4h-38.7c2.3-16.3,5.8-32.4,9.9-48.3c5.9-22.6,12.8-44.9,21.1-66.7
		c17.4-45.6,38.4-90.3,67.8-129.5C599.2,839.6,625.5,820.1,654.7,807.6z"/>
	<path class="st1" d="M851.4,1014.4c15.3-11.5,32.6-19.8,48-31.2c-0.8,12.5-5.9,24.6-14.6,33.7c-26.4,28-46.9,60.7-68.9,92.1h-43.8
		c14-17.4,28.4-34.5,40.6-53.2C823.4,1040.1,836.2,1025.7,851.4,1014.4z"/>
</g>
<g id="_x23_3c3228ff">
	<path class="st2" d="M857,0h20.7c-4.5,8.6-9.5,17-14.3,25.4c-2.5,4.1-4.5,8.7-8.1,12C857.5,25.1,857.9,12.5,857,0z"/>
</g>
<g id="_x23_46200bff">
	<path class="st3" d="M386.4,451.5c11-4.2,24.2-2.5,33.8,4.3c8.1,5.7,13.9,14.2,17.5,23.4c4.2,10.7,5.5,22.4,4.9,33.8
		c-0.7,14.5-3.1,29.2-8.9,42.6c-0.7-5.4-0.1-13.2-6.4-15.4c2-7.5,4.6-14.8,5.2-22.6c0.7-8.9,1.2-17.8,0.2-26.7
		c-2-14.7-10.1-29.1-23.4-36.3c-6.7-4.1-14.9-2.1-22.3-3.1L386.4,451.5z"/>
	<path class="st3" d="M356,547.9c-4.1-16.5-4.2-33.9-0.6-50.5c1.3,8.5-0.3,17,0.7,25.5c0.9,7.5,1.3,15.3,4.8,22.1
		c4,8,11,14.4,19.4,17.5c8,3.6,16.9,3.2,25.4,2.4c-0.2,2.9-0.5,6,0.6,8.8c1,2.2,3,3.9,4.6,5.7c-12,2.7-25.2,2.1-36-4.4
		C365.1,569.2,358.7,558.9,356,547.9z"/>
</g>
<g id="_x23_2b1b13ff">
	<path class="st4" d="M376.1,457.2c3.3-2.4,6.9-5,11-5.7c7.4,1,15.6-0.9,22.3,3.1c13.3,7.2,21.4,21.6,23.4,36.3
		c1,8.9,0.5,17.8-0.2,26.7c-0.6,7.8-3.2,15.1-5.2,22.6c-3.5,10.5-10.1,21.7-21.6,24.7c-8.5,0.9-17.4,1.3-25.4-2.4
		c-8.4-3.1-15.4-9.5-19.4-17.5c-3.6-6.8-3.9-14.6-4.8-22.1c-1-8.5,0.5-17-0.7-25.5C357.7,482.4,363.9,467,376.1,457.2 M385.5,475.6
		c-10.4,3.6-14,16.9-10.8,26.6c1.8,5.9,6.8,11.4,13.3,11.6c5.4,0.4,10.3-3.3,13-7.8c4.6-8,4.2-18.9-1.8-26
		C395.9,476.1,390.4,474,385.5,475.6z"/>
</g>
<g id="_x23_ffffffff">
	<path class="st5" d="M385.5,475.6c4.9-1.6,10.4,0.4,13.6,4.4c6.1,7.1,6.4,18.1,1.8,26c-2.6,4.5-7.5,8.2-13,7.8
		c-6.5-0.2-11.5-5.8-13.3-11.6C371.5,492.5,375.1,479.2,385.5,475.6z"/>
</g>
<g id="_x23_6d5237ff">
	<path class="st6" d="M427.3,540.2c6.4,2.2,5.7,10,6.4,15.4c-3.8,10.4-11.6,20.8-22.8,23.7c-1.7-1.8-3.6-3.4-4.6-5.7
		c-1.1-2.8-0.8-5.8-0.6-8.8C417.2,562,423.8,550.8,427.3,540.2z"/>
</g>
<g id="_x23_ff7751ff">
	<path class="st7" d="M529.4,577.7c20.2-1.5,40.8,1.2,59.9,8c17.7,6.5,31.4,21.3,38.6,38.5c12.3,28.6,9.5,62.1-2.7,90.2
		c-4.8,12.1-13.8,22.2-24.3,29.9c-15.9,11.6-34.7,18.7-53.9,22.6c-19.4,3.8-39.6,4.5-58.9-0.1c-15.7-3.8-29.4-13.9-39.1-26.7
		c-13.1-17.3-19.8-39.3-19.3-61c0.8-36.3,21.9-72,54.3-88.9C498,582.8,513.7,578.8,529.4,577.7z"/>
</g>
<g id="_x23_946617ff">
	<path class="st8" d="M173.5,596.7c2.3-1.6,4.5-3.5,7.4-3.6c5.2-0.5,10.8-0.7,15.8,1.1c7.5,2.9,6.8,15.2-0.1,18.5
		c-5,2.5-11,2.3-16.2,0.7c-3.9-1.2-5.7-5.1-7.1-8.6c-0.4-3.3-0.5-6.6,0.4-9.8L173.5,596.7z"/>
	<path class="st8" d="M206.1,682.2c5.9-4,13.6-2.3,19.2,1.3c9.9,6.3,19.7,13.7,31.5,15.5c9.1,1.3,19.6,0.1,26.3-6.7
		c3.5-3.3,3.9-9.3,8.8-11.3c5.8-2.9,13.4,1.6,13.5,8.1c-0.2,6.3-4.2,11.7-8.2,16.2c-11.1,11.9-28.9,15.3-44.4,12.5
		c-13.7-2.2-25.6-9.8-36.9-17.5c-2.5,4.3-5.9,8.6-11.1,9.7c-3.2,1-6.4-0.3-9.2-1.8c-1.2-2.7-2.4-5.3-3.5-8c0.8-2.6,1.7-5.3,4-6.9
		C200.4,690.4,201.6,684.7,206.1,682.2z"/>
</g>
</svg>